<?xml version="1.0" encoding="UTF-8"?><svg id="Layer_1" xmlns="http://www.w3.org/2000/svg" viewBox="0 0 60.26 60.26"><defs><style>.cls-1{fill:#007fff;}</style></defs><path class="cls-1" d="M8.68,5c2.03,0,3.68,1.65,3.68,3.68s-1.65,3.68-3.68,3.68-3.68-1.65-3.68-3.68,1.65-3.68,3.68-3.68m0-5C3.89,0,0,3.89,0,8.68s3.89,8.68,8.68,8.68,8.68-3.89,8.68-8.68S13.48,0,8.68,0h0Z"/><path class="cls-1" d="M30.13,5c2.03,0,3.68,1.65,3.68,3.68s-1.65,3.68-3.68,3.68-3.68-1.65-3.68-3.68,1.65-3.68,3.68-3.68m0-5c-4.79,0-8.68,3.89-8.68,8.68s3.89,8.68,8.68,8.68,8.68-3.89,8.68-8.68S34.92,0,30.13,0h0Z"/><path class="cls-1" d="M51.57,5c2.03,0,3.68,1.65,3.68,3.68s-1.65,3.68-3.68,3.68-3.68-1.65-3.68-3.68,1.65-3.68,3.68-3.68m0-5c-4.79,0-8.68,3.89-8.68,8.68s3.89,8.68,8.68,8.68,8.68-3.89,8.68-8.68S56.37,0,51.57,0h0Z"/><path class="cls-1" d="M8.68,26.45c2.03,0,3.68,1.65,3.68,3.68s-1.65,3.68-3.68,3.68-3.68-1.65-3.68-3.68,1.65-3.68,3.68-3.68m0-5C3.89,21.45,0,25.33,0,30.13s3.89,8.68,8.68,8.68,8.68-3.89,8.68-8.68-3.89-8.68-8.68-8.68h0Z"/><path class="cls-1" d="M30.13,26.45c2.03,0,3.68,1.65,3.68,3.68s-1.65,3.68-3.68,3.68-3.68-1.65-3.68-3.68,1.65-3.68,3.68-3.68m0-5c-4.79,0-8.68,3.89-8.68,8.68s3.89,8.68,8.68,8.68,8.68-3.89,8.68-8.68-3.89-8.68-8.68-8.68h0Z"/><path class="cls-1" d="M51.57,26.45c2.03,0,3.68,1.65,3.68,3.68s-1.65,3.68-3.68,3.68-3.68-1.65-3.68-3.68,1.65-3.68,3.68-3.68m0-5c-4.79,0-8.68,3.89-8.68,8.68s3.89,8.68,8.68,8.68,8.68-3.89,8.68-8.68-3.89-8.68-8.68-8.68h0Z"/><path class="cls-1" d="M8.68,47.89c2.03,0,3.68,1.65,3.68,3.68s-1.65,3.68-3.68,3.68-3.68-1.65-3.68-3.68,1.65-3.68,3.68-3.68m0-5c-4.79,0-8.68,3.89-8.68,8.68s3.89,8.68,8.68,8.68,8.68-3.89,8.68-8.68-3.89-8.68-8.68-8.68h0Z"/><path class="cls-1" d="M30.13,47.89c2.03,0,3.68,1.65,3.68,3.68s-1.65,3.68-3.68,3.68-3.68-1.65-3.68-3.68,1.65-3.68,3.68-3.68m0-5c-4.79,0-8.68,3.89-8.68,8.68s3.89,8.68,8.68,8.68,8.68-3.89,8.68-8.68-3.89-8.68-8.68-8.68h0Z"/><path class="cls-1" d="M51.57,47.89c2.03,0,3.68,1.65,3.68,3.68s-1.65,3.68-3.68,3.68-3.68-1.65-3.68-3.68,1.65-3.68,3.68-3.68m0-5c-4.79,0-8.68,3.89-8.68,8.68s3.89,8.68,8.68,8.68,8.68-3.89,8.68-8.68-3.89-8.68-8.68-8.68h0Z"/></svg>