<?xml version="1.0" encoding="UTF-8"?><svg id="Layer_1" xmlns="http://www.w3.org/2000/svg" xmlns:xlink="http://www.w3.org/1999/xlink" viewBox="0 0 470.37 347"><defs><style>.cls-1{fill:#fff;}.cls-2{fill:none;stroke:#000;stroke-linecap:round;stroke-linejoin:round;stroke-width:13px;}.cls-3{fill:url(#linear-gradient);}.cls-4{fill:red;}</style><linearGradient id="linear-gradient" x1="72.76" y1="360.94" x2="313.18" y2="120.51" gradientTransform="matrix(1, 0, 0, 1, 0, 0)" gradientUnits="userSpaceOnUse"><stop offset="0" stop-color="#005e9c"/><stop offset=".53" stop-color="#007fff"/></linearGradient></defs><g><path d="M98,209h-11c-12.02,0-21.65-10.53-21.22-23.21l5.5-164.17c.4-12.06,9.79-21.63,21.22-21.63h0c11.44,0,20.82,9.56,21.22,21.63l5.5,164.17c.42,12.68-9.2,23.21-21.22,23.21Z"/><rect x="47" y="281" width="58" height="66" rx="29" ry="29"/><rect x="290" y="281" width="58" height="66" rx="29" ry="29"/><path class="cls-3" d="M345.87,287.57c0,7.4,1.21,14.52,3.44,21.18H35.12c-19.4,0-35.12-15.72-35.12-35.12v-49.76c0-19.4,15.72-35.12,35.12-35.12H366.88c18.66,0,33.92,14.55,35.05,32.93-31.75,5.13-56.06,32.73-56.06,65.89Z"/><rect class="cls-1" x="53" y="240.75" width="57" height="16" rx="8" ry="8"/><rect class="cls-1" x="142" y="240.75" width="57" height="16" rx="8" ry="8"/><circle class="cls-1" cx="316" cy="248.75" r="32"/><circle cx="314.5" cy="120.5" r="23.5"/><path class="cls-2" d="M282,88c2.42-2.27,14.94-13.58,34-13,16.31,.5,27.05,9.39,30,12"/><path class="cls-2" d="M259.5,66.5c3.91-3.77,23.86-22.2,55-22,30.5,.19,49.97,18.12,54,22"/><path class="cls-2" d="M240.5,45.5c4.99-5.01,31.64-30.8,74-31,43-.2,70.14,26.11,75,31"/></g><g><path class="cls-4" d="M391.75,313.39c-1.28,0-2.56-.49-3.54-1.46-1.95-1.95-1.95-5.12,0-7.07l42.07-42.07c1.95-1.95,5.12-1.95,7.07,0,1.95,1.95,1.95,5.12,0,7.07l-42.07,42.07c-.98,.98-2.26,1.46-3.54,1.46Z"/><path class="cls-4" d="M433.82,313.39c-1.28,0-2.56-.49-3.54-1.46l-42.07-42.07c-1.95-1.95-1.95-5.12,0-7.07,1.95-1.95,5.12-1.95,7.07,0l42.07,42.07c1.95,1.95,1.95,5.12,0,7.07-.98,.98-2.26,1.46-3.54,1.46Z"/><path class="cls-4" d="M412.62,345.32c-31.84,0-57.75-25.91-57.75-57.75s25.91-57.75,57.75-57.75,57.75,25.91,57.75,57.75-25.91,57.75-57.75,57.75Zm0-107.5c-27.43,0-49.75,22.32-49.75,49.75s22.32,49.75,49.75,49.75,49.75-22.32,49.75-49.75-22.32-49.75-49.75-49.75Z"/></g></svg>